<svg width="61" height="51" viewBox="0 0 61 51" fill="none" xmlns="http://www.w3.org/2000/svg">
<g clip-path="url(#clip0_7_8)">
<path d="M50 48.291C50 48.7467 49.8617 49.1455 49.585 49.4873C49.3083 49.8291 48.9258 50 48.4375 50C48.0143 50 47.6481 49.8454 47.3389 49.5361L28.1738 30.3955C26.6113 31.6813 24.9023 32.666 23.0469 33.3496C21.1914 34.0332 19.2383 34.375 17.1875 34.375C15.6087 34.375 14.0869 34.1716 12.6221 33.7646C11.1572 33.3577 9.79004 32.7799 8.52051 32.0312C7.25098 31.2826 6.09538 30.3874 5.05371 29.3457C4.01204 28.304 3.10872 27.1403 2.34375 25.8545C1.57878 24.5687 1.00098 23.2015 0.610352 21.7529C0.219727 20.3044 0.016276 18.7826 0 17.1875C0 15.6087 0.203451 14.0869 0.610352 12.6221C1.01725 11.1572 1.59505 9.79004 2.34375 8.52051C3.09245 7.25098 3.98763 6.09538 5.0293 5.05371C6.07096 4.01204 7.2347 3.10872 8.52051 2.34375C9.80632 1.57878 11.1735 1.00098 12.6221 0.610352C14.0706 0.219727 15.5924 0.016276 17.1875 0C18.7663 0 20.2881 0.203451 21.7529 0.610352C23.2178 1.01725 24.585 1.59505 25.8545 2.34375C27.124 3.09245 28.2796 3.98763 29.3213 5.0293C30.363 6.07096 31.2663 7.2347 32.0312 8.52051C32.7962 9.80632 33.374 11.1735 33.7646 12.6221C34.1553 14.0706 34.3587 15.5924 34.375 17.1875C34.375 19.222 34.0332 21.167 33.3496 23.0225C32.666 24.8779 31.6813 26.5951 30.3955 28.1738L31.7871 29.5654C32.4707 30.249 33.3008 31.0628 34.2773 32.0068C35.2539 32.9508 36.3118 33.9844 37.4512 35.1074C38.5905 36.2305 39.7461 37.3779 40.918 38.5498C42.0898 39.7217 43.221 40.861 44.3115 41.9678C45.402 43.0745 46.3704 44.0755 47.2168 44.9707C48.0632 45.8659 48.7386 46.6064 49.2432 47.1924C49.7477 47.7783 50 48.1445 50 48.291ZM17.1875 31.25C19.1243 31.25 20.9473 30.8838 22.6562 30.1514C24.3652 29.4189 25.8545 28.4098 27.124 27.124C28.3936 25.8382 29.3945 24.349 30.127 22.6562C30.8594 20.9635 31.2337 19.1406 31.25 17.1875C31.25 15.2507 30.8838 13.4277 30.1514 11.7188C29.4189 10.0098 28.4098 8.52051 27.124 7.25098C25.8382 5.98145 24.349 4.98047 22.6562 4.24805C20.9635 3.51562 19.1406 3.14128 17.1875 3.125C15.2507 3.125 13.4277 3.49121 11.7188 4.22363C10.0098 4.95605 8.52051 5.96517 7.25098 7.25098C5.98145 8.53678 4.98047 10.026 4.24805 11.7188C3.51562 13.4115 3.14128 15.2344 3.125 17.1875C3.125 19.1243 3.49121 20.9473 4.22363 22.6562C4.95605 24.3652 5.96517 25.8545 7.25098 27.124C8.53678 28.3936 10.026 29.3945 11.7188 30.127C13.4115 30.8594 15.2344 31.2337 17.1875 31.25Z" fill="#333333"/>
</g>
<path d="M61 50H60" stroke="#333333" stroke-opacity="0.1" stroke-width="2"/>
<defs>
<clipPath id="clip0_7_8">
<rect width="50" height="50" fill="white"/>
</clipPath>
</defs>
</svg>
